<svg width="236" height="155" viewBox="0 0 236 155" fill="none" xmlns="http://www.w3.org/2000/svg">
<path fill-rule="evenodd" clip-rule="evenodd" d="M138.425 2.7215C145.08 0.907333 151.948 -0.00797787 158.847 4.35586e-05C201.458 4.35586e-05 236 34.4562 236 76.9827C236 119.509 201.458 153.983 158.847 153.983C151.948 153.992 145.079 153.077 138.425 151.261C171.123 142.337 195.154 112.458 195.154 76.9902C195.154 41.5221 171.123 11.6528 138.425 2.7215ZM118 11.6679C139.808 25.2702 154.307 49.4442 154.307 77.0002C154.307 104.559 139.808 128.73 118 142.352C124.334 146.312 131.215 149.323 138.424 151.289C131.769 153.104 124.899 154.019 118 154.01C111.101 154.019 104.233 153.104 97.5781 151.289C90.9227 153.104 84.0531 154.019 77.1536 154.01C71.0389 154.014 64.9452 153.295 59 151.868C25.1469 143.72 0 113.295 0 77.0101C0 40.7256 25.1469 10.3022 59 2.15264C64.9454 0.726489 71.0389 0.00732019 77.1536 0.0101144C84.0531 0.0021101 90.9224 0.917419 97.5781 2.73157C104.233 0.917404 111.101 0.00209293 118 0.0101144C124.899 0.00225903 131.769 0.917565 138.424 2.73157C131.215 4.69852 124.334 7.70927 118 11.6679ZM99.8464 27.3806C88.0987 41.2533 81.6657 58.8368 81.6927 77.0002C81.6644 95.1638 88.0976 112.748 99.8464 126.62C111.595 112.748 118.028 95.1638 118 77.0002C118.027 58.8368 111.594 41.2533 99.8464 27.3806Z" fill="black"/>
</svg>
